<?xml version="1.0" standalone="no"?>
<!DOCTYPE svg PUBLIC "-//W3C//DTD SVG 20010904//EN"
 "http://www.w3.org/TR/2001/REC-SVG-20010904/DTD/svg10.dtd">
<svg version="1.0" xmlns="http://www.w3.org/2000/svg"
 width="498.000000pt" height="700.000000pt" viewBox="0 0 498.000000 700.000000"
 preserveAspectRatio="xMidYMid meet">
<metadata>
Created by potrace 1.16, written by Peter Selinger 2001-2019
</metadata>
<g transform="translate(0.000000,700.000000) scale(0.100000,-0.100000)"
fill="#000000" stroke="none">
<path d="M0 6903 l0 -98 29 50 c34 59 71 95 126 123 l40 21 -97 1 -98 0 0 -97z"/>
<path d="M4835 6979 c50 -24 101 -73 125 -119 l19 -35 1 88 0 87 -92 0 -93 -1
40 -20z"/>
<path d="M375 6608 c-3 -7 -4 -442 -3 -967 l3 -955 176 -135 c97 -75 189 -151
206 -170 l29 -33 -29 -29 -28 -29 -164 125 c-90 69 -167 130 -170 135 -4 6
-11 8 -16 5 -5 -4 -9 -501 -9 -1272 0 -1022 2 -1264 13 -1260 7 2 150 114 317
249 349 279 405 322 372 287 -12 -13 -174 -146 -360 -294 l-337 -271 0 -257 0
-257 870 -2 c813 -3 873 -4 910 -21 135 -61 190 -218 120 -345 -15 -28 -42
-62 -59 -75 -74 -55 -23 -52 -966 -55 l-875 -2 -3 -300 -2 -300 2120 0 2120 0
0 983 0 982 -177 135 c-97 74 -181 141 -187 148 -6 8 -21 25 -33 38 l-22 24
27 28 27 27 183 -138 182 -138 0 1275 c0 702 -2 1276 -5 1276 -3 0 -139 -107
-303 -238 -163 -130 -328 -261 -367 -291 -154 -117 27 35 347 292 l328 262 0
257 0 258 -872 0 c-857 0 -874 1 -918 21 -97 44 -144 117 -144 224 0 107 47
180 144 224 44 20 61 21 912 21 l867 0 4 -62 c2 -35 4 93 5 285 l2 347 -2115
0 c-1683 0 -2117 -3 -2120 -12z m468 -236 c-12 -7 -23 -19 -23 -27 0 -21 -4
-19 -40 16 -24 24 -28 34 -18 40 7 5 16 9 20 9 4 0 9 9 13 20 6 18 9 17 39
-13 l33 -32 -24 -13z m3160 0 c-12 -7 -23 -19 -23 -27 0 -21 -4 -19 -40 16
-24 24 -28 34 -18 40 7 5 16 9 20 9 4 0 9 9 13 20 6 18 9 17 39 -13 l33 -32
-24 -13z m-1877 44 c15 -12 17 -18 8 -33 -15 -24 -58 -24 -62 0 -4 18 14 47
27 47 4 0 16 -6 27 -14z m1114 -7 c0 -5 -7 -9 -15 -9 -15 0 -20 12 -9 23 8 8
24 -1 24 -14z m-2073 -971 c-1 -112 -2 -23 -2 197 0 220 1 311 2 203 2 -108 2
-288 0 -400z m558 413 c3 -11 15 -23 25 -26 18 -6 17 -9 -13 -39 l-32 -33 -12
22 c-7 13 -20 25 -29 29 -14 5 -12 11 12 35 35 35 41 36 49 12z m-983 -406 c0
-5 -5 -11 -11 -13 -6 -2 -11 4 -11 13 0 9 5 15 11 13 6 -2 11 -8 11 -13z
m1739 -304 l31 -19 -30 -17 c-16 -10 -39 -34 -51 -54 -11 -20 -21 -31 -21 -24
0 19 -51 74 -79 85 l-26 10 25 10 c33 12 60 38 72 67 l9 25 19 -32 c11 -18 34
-41 51 -51z m1064 39 c0 -22 -29 -18 -33 3 -3 14 1 18 15 15 10 -2 18 -10 18
-18z m-1535 -111 c0 -5 -7 -9 -15 -9 -15 0 -20 12 -9 23 8 8 24 -1 24 -14z
m-820 -90 l12 -50 27 25 c15 14 30 26 34 26 4 0 7 -41 7 -92 0 -86 -2 -94 -25
-113 -22 -18 -25 -32 -34 -135 -11 -121 -29 -201 -46 -203 -18 -3 -37 76 -48
205 -10 117 -13 127 -34 137 -22 10 -23 16 -23 106 0 52 4 95 8 95 5 0 17 -9
27 -20 24 -26 32 -25 39 5 12 48 26 76 35 71 5 -3 14 -29 21 -57z m1853 -376
l-26 -28 -28 27 -28 28 27 28 27 27 27 -26 28 -27 -27 -29z m-1366 15 l23 -21
25 23 c32 31 46 17 15 -15 l-23 -25 21 -23 c29 -31 16 -44 -15 -15 l-23 21
-25 -23 c-32 -31 -46 -17 -15 15 l23 25 -21 23 c-37 40 -25 52 15 15z m2590
-474 c8 -21 -13 -42 -28 -27 -13 13 -5 43 11 43 6 0 13 -7 17 -16z m-189 -57
c2 -12 -3 -17 -17 -17 -12 0 -21 6 -21 13 0 31 32 34 38 4z m-1490 -127 c88
-15 162 -45 240 -97 l67 -45 70 6 c94 8 216 -8 281 -38 65 -30 94 -72 94 -135
0 -73 -33 -127 -149 -240 -102 -101 -106 -107 -118 -165 -33 -162 -165 -330
-314 -401 -79 -37 -187 -65 -257 -65 -110 0 -251 47 -357 120 -44 30 -48 31
-123 25 -98 -9 -224 8 -282 38 -89 46 -114 131 -65 226 29 57 114 153 184 206
43 33 50 44 56 84 35 230 224 423 465 475 80 18 127 19 208 6z m-1272 -37 l29
-26 -27 -28 -28 -27 -28 27 -28 28 26 25 c14 14 26 26 26 27 1 0 15 -11 30
-26z m2829 -35 c-9 -22 -35 -31 -51 -17 -19 16 -17 46 4 58 22 13 56 -17 47
-41z m-422 -766 c-12 -7 -23 -19 -23 -27 0 -21 -4 -19 -40 16 -24 24 -28 34
-18 40 7 5 16 9 20 9 4 0 9 9 13 20 6 18 9 17 39 -13 l33 -32 -24 -13z m-2829
26 c8 -14 7 -21 -6 -34 -30 -30 -75 9 -48 42 16 18 39 15 54 -8z m44 -201 c2
-12 -3 -17 -17 -17 -12 0 -21 6 -21 13 0 31 32 34 38 4z m-193 -47 c0 -8 -8
-16 -17 -18 -13 -2 -18 3 -18 18 0 15 5 20 18 18 9 -2 17 -10 17 -18z m3103
-395 c6 -33 14 -100 17 -148 6 -80 9 -89 31 -99 23 -11 24 -15 24 -110 0 -93
-1 -98 -18 -89 -10 5 -25 17 -32 27 -13 14 -16 11 -30 -32 -20 -64 -35 -66
-50 -4 -7 27 -15 50 -18 50 -3 0 -19 -12 -34 -27 l-28 -27 0 100 c0 96 1 101
24 113 21 12 24 22 30 109 7 91 29 212 43 235 10 16 30 -33 41 -98z m-584 -17
l16 -22 25 24 c33 31 45 17 14 -16 l-24 -26 23 -18 c21 -17 30 -40 15 -40 -4
0 -17 10 -30 22 l-23 21 -24 -22 c-13 -12 -27 -18 -30 -13 -3 5 3 17 14 27 25
23 25 37 0 53 -11 7 -20 17 -20 22 0 18 29 10 44 -12z m-1275 -59 c35 -35 37
-39 16 -39 -8 0 -20 -11 -27 -23 l-13 -24 -32 33 c-30 30 -31 33 -13 39 10 3
22 15 25 26 8 25 8 25 44 -12z m648 -500 l31 -16 -35 -18 c-19 -11 -43 -35
-53 -54 -11 -20 -19 -31 -20 -24 0 18 -60 83 -76 83 -22 0 -16 16 11 28 14 7
35 28 46 47 l21 35 22 -32 c12 -18 35 -40 53 -49z m363 30 c0 -5 -7 -9 -15 -9
-15 0 -20 12 -9 23 8 8 24 -1 24 -14z m-1532 -106 c-2 -10 -10 -18 -18 -18 -8
0 -16 8 -18 18 -2 12 3 17 18 17 15 0 20 -5 18 -17z m2349 -656 c-1 -111 -2
-20 -2 203 0 223 1 314 2 202 2 -111 2 -293 0 -405z m438 383 c-5 -8 -11 -8
-17 -2 -6 6 -7 16 -3 22 5 8 11 8 17 2 6 -6 7 -16 3 -22z m-955 -331 c24 -24
28 -34 18 -40 -7 -5 -16 -9 -20 -9 -4 0 -9 -9 -13 -20 -6 -18 -9 -17 -39 13
-30 29 -31 33 -13 40 10 4 21 16 24 27 3 11 7 20 8 20 2 0 18 -14 35 -31z
m-2263 -576 l30 -28 -29 -26 -28 -27 -28 26 -27 27 25 26 c14 15 26 27 26 28
1 0 15 -11 31 -26z m3159 0 l29 -26 -27 -28 -28 -27 -27 26 -28 27 25 26 c14
15 26 27 26 28 1 0 15 -11 30 -26z m-1296 -8 c18 -21 3 -55 -25 -55 -15 0 -26
7 -30 20 -7 23 10 50 30 50 7 0 18 -7 25 -15z m-1132 -43 c2 -7 -3 -12 -12
-12 -9 0 -16 7 -16 16 0 17 22 14 28 -4z"/>
<path d="M2910 3803 c0 -4 13 -21 29 -38 78 -80 135 -217 149 -354 l7 -75 87
83 c135 128 175 228 123 307 -21 32 -78 60 -150 73 -65 12 -245 15 -245 4z"/>
<path d="M2340 3775 c0 -8 7 -15 15 -15 8 0 15 7 15 15 0 8 -7 15 -15 15 -8 0
-15 -7 -15 -15z"/>
<path d="M1801 3323 c-99 -98 -134 -156 -135 -223 -1 -62 23 -96 92 -128 50
-23 73 -27 190 -30 72 -2 132 -1 132 3 0 4 -18 28 -39 54 -78 93 -127 220
-133 346 -1 36 -6 65 -10 65 -4 0 -48 -39 -97 -87z"/>
<path d="M4032 5908 c-7 -7 -12 -19 -12 -28 0 -37 19 -40 221 -40 167 0 199
-2 210 -16 9 -11 10 -20 2 -32 -9 -15 -48 -18 -363 -22 -322 -5 -354 -7 -364
-22 -8 -13 -8 -23 0 -35 10 -17 44 -18 442 -21 l431 -2 4 -63 c2 -34 4 18 5
116 l2 177 -283 0 c-207 0 -286 -3 -295 -12z"/>
<path d="M374 1337 c-2 -7 -3 -60 -2 -118 l3 -104 274 -3 c244 -2 276 -1 293
14 23 21 23 36 0 57 -15 14 -50 17 -218 19 l-199 3 0 25 0 25 358 5 c303 4
359 7 367 20 15 23 12 38 -12 54 -19 14 -78 16 -441 16 -336 0 -419 -3 -423
-13z"/>
<path d="M0 98 l0 -98 103 0 102 0 -40 19 c-58 26 -102 67 -135 125 l-30 51 0
-97z"/>
<path d="M4955 134 c-24 -44 -76 -91 -129 -115 l-41 -19 98 0 97 0 0 85 c0 47
-1 85 -3 85 -1 0 -11 -16 -22 -36z"/>
</g>
</svg>
